<?xml version="1.0" encoding="utf-8"?>
<!-- Generator: Adobe Illustrator 16.0.0, SVG Export Plug-In . SVG Version: 6.00 Build 0)  -->
<!DOCTYPE svg PUBLIC "-//W3C//DTD SVG 1.1//EN" "http://www.w3.org/Graphics/SVG/1.1/DTD/svg11.dtd">
<svg version="1.1" id="Ebene_1" xmlns="http://www.w3.org/2000/svg" xmlns:xlink="http://www.w3.org/1999/xlink" x="0px" y="0px"
	 width="73.667px" height="408.5px" viewBox="0 0 73.667 408.5" enable-background="new 0 0 73.667 408.5" xml:space="preserve">
<g>
	<g>
		<g>
			<path fill="#014260" d="M20,31.182c-0.807,0.691-1.345,1.53-1.662,2.412c0.315-0.129,0.67-0.211,1.095-0.211
				c0.327,0,0.686,0.045,1.068,0.136c2-2.624,4.523-5.016,7.613-7.248c-1.479-1.062-3.491-1.693-6.034-1.586
				c0,0-5.887,0.916-3.774,4.088C19.062,29.907,22.053,29.423,20,31.182z"/>
			<path fill="#014260" d="M28.122,31.547c-1.761,1.56-4.238,2.821-6.048,3.618c-0.016,0.552-0.293,0.861-0.54,1.136
				c-0.292,0.326-0.545,0.607-0.407,1.299l0.012,0.062l-0.029,0.057c-0.271,0.527-0.838,1.068-1.552,1.494
				c0.919,1.101,2.38,1.79,4.327,1.596c7.16-0.708,9.333-7.515,6.593-11.876C29.775,29.865,28.978,30.79,28.122,31.547z
				 M24.173,39.736c-0.176,0.122-0.472,0.245-0.662,0.228c-0.33-0.03-0.435-0.02-0.786-0.131c-0.228-0.072-0.079-0.292-0.027-0.436
				c0.104-0.286-0.142-0.595-0.292-0.823c-0.07-0.104-0.225-0.25-0.24-0.381c-0.038-0.306,0.423-0.213,0.598-0.178
				c0.318,0.064,0.665,0.185,0.97,0.017c0.171-0.093,0.36-0.373,0.564-0.194c0.265,0.233,0.178,0.661,0.359,1.182
				C24.819,39.491,24.363,39.607,24.173,39.736z M27.781,38.714c-0.146,0.478-0.587,0.315-0.818,0.315
				c-0.215,0-0.53-0.065-0.676-0.187c-0.252-0.21-0.343-0.259-0.564-0.547c-0.144-0.188,0.108-0.282,0.235-0.371
				c0.255-0.176,0.236-0.566,0.247-0.838c0.005-0.125-0.036-0.332,0.029-0.446c0.15-0.271,0.471,0.062,0.594,0.19
				c0.223,0.23,0.434,0.525,0.783,0.558c0.195,0.02,0.515-0.102,0.576,0.159C28.265,37.886,27.941,38.187,27.781,38.714z
				 M29.841,36.35c-0.185,0.106-0.49,0.208-0.678,0.176c-0.326-0.055-0.43-0.052-0.772-0.19c-0.221-0.09-0.055-0.297,0.009-0.437
				c0.126-0.277-0.095-0.604-0.227-0.843c-0.062-0.111-0.205-0.267-0.209-0.398c-0.013-0.308,0.438-0.181,0.609-0.132
				c0.312,0.087,0.648,0.234,0.966,0.09c0.178-0.081,0.39-0.345,0.578-0.151c0.246,0.252,0.125,0.672,0.263,1.206
				C30.505,36.154,30.041,36.234,29.841,36.35z"/>
		</g>
	</g>
	<g>
		<path fill="#014260" d="M15.442,39.134c0.328,0.113,0.687,0.169,1.072,0.169c1.614,0,3.273-1.006,3.838-1.949
			c-0.134-0.903,0.262-1.344,0.584-1.703c0.25-0.278,0.431-0.479,0.413-0.905l-0.011-0.262l0.245-0.107
			c2.651-1.158,4.81-2.441,6.242-3.709c2.099-1.859,3.87-4.734,4.745-6.295c-4.896,2.967-8.63,6.2-11.398,9.859l-0.16,0.212
			l-0.261-0.068c-0.397-0.102-0.763-0.153-1.088-0.153c-1.585,0-2.153,1.224-2.811,2.64C16.47,37.69,16.076,38.539,15.442,39.134z"
			/>
		<path fill="#014260" d="M16.514,39.49c-0.405,0-0.787-0.061-1.135-0.181l-0.292-0.101L15.31,39
			c0.608-0.57,0.995-1.404,1.369-2.211c0.656-1.416,1.276-2.751,2.985-2.751c0.342,0,0.724,0.054,1.137,0.16l0.135,0.035l0.083-0.11
			c2.787-3.686,6.533-6.926,11.452-9.907l0.617-0.374l-0.349,0.622c-0.876,1.563-2.663,4.465-4.784,6.344
			c-1.448,1.281-3.624,2.575-6.292,3.74l-0.127,0.056l0.006,0.136c0.021,0.5-0.201,0.748-0.459,1.035
			c-0.31,0.345-0.661,0.735-0.539,1.554l0.009,0.064l-0.034,0.057C19.929,38.431,18.23,39.49,16.514,39.49z M15.797,39.04
			c0.227,0.051,0.466,0.078,0.717,0.078c1.5,0,3.072-0.922,3.64-1.804c-0.117-0.943,0.319-1.428,0.639-1.785
			c0.245-0.272,0.38-0.423,0.365-0.774l-0.007-0.179l-0.062,0.082l-0.386-0.1c-0.38-0.098-0.73-0.148-1.039-0.148
			c-1.462,0-1.98,1.117-2.636,2.531C16.683,37.683,16.33,38.445,15.797,39.04z M32.035,24.923
			c-4.527,2.824-8.014,5.883-10.644,9.335l0.114-0.05c2.633-1.15,4.773-2.422,6.192-3.677C29.515,28.92,31.091,26.529,32.035,24.923
			z"/>
	</g>
</g>
<g id="New_Symbol_230">
	<g>
		<polygon fill="#014260" points="33.206,67.022 29.086,62.902 29.086,66.022 23.086,66.022 23.086,68.022 29.086,68.022 
			29.086,71.141 		"/>
		<g>
			<polygon fill="#014260" points="27.586,77.022 15.086,77.022 15.086,57.022 27.586,57.022 27.586,63.272 25.086,63.272 
				25.086,59.522 17.586,59.522 17.586,74.522 25.086,74.522 25.086,70.772 27.586,70.772 			"/>
		</g>
	</g>
	<g>
		<polygon fill="#014260" points="68.73,69.901 65.583,66.754 65.583,69.138 61,69.138 61,70.666 65.583,70.666 65.583,73.048 		"/>
		<g>
			<polygon fill="#014260" points="63.451,77.154 54.076,77.154 54.076,62.154 63.451,62.154 63.451,66.842 61.576,66.842 
				61.576,64.029 55.951,64.029 55.951,75.279 61.576,75.279 61.576,72.467 63.451,72.467 			"/>
		</g>
	</g>
	<g id="New_Symbol_84">
		<g>
			<g>
				<g>
					<path fill="#014260" d="M25.474,99.502h-1.532c-0.091-0.293-0.22-0.571-0.375-0.83l1.016-1.019c0.24-0.237,0.24-0.625,0-0.864
						l-0.432-0.431c-0.239-0.238-0.626-0.237-0.864,0l-1.034,1.032c-0.279-0.159-0.582-0.282-0.904-0.365v-1.343
						c0-0.337-0.272-0.612-0.61-0.612h-0.611c-0.336,0-0.61,0.275-0.61,0.612v1.343c-0.351,0.088-0.681,0.229-0.983,0.413
						l-0.865-0.865c-0.238-0.238-0.627-0.238-0.865,0l-0.434,0.431c-0.238,0.238-0.235,0.626,0.002,0.866l0.88,0.881
						c-0.186,0.324-0.325,0.679-0.405,1.055h-1.15c-0.338,0-0.612,0.273-0.612,0.611v0.611c0,0.336,0.274,0.609,0.612,0.609h1.228
						c0.111,0.368,0.279,0.709,0.494,1.016l-0.831,0.832c-0.239,0.24-0.239,0.628-0.002,0.866l0.432,0.431
						c0.24,0.237,0.627,0.237,0.866-0.001l0.928-0.927c0.313,0.154,0.652,0.268,1.009,0.326v1.276c0,0.338,0.273,0.611,0.61,0.612
						h0.612c0.336-0.001,0.61-0.274,0.61-0.612v-1.435c0.308-0.108,0.6-0.256,0.864-0.44l0.984,0.984
						c0.239,0.238,0.625,0.238,0.865,0l0.432-0.433c0.24-0.238,0.24-0.624-0.002-0.864l-1.078-1.079
						c0.132-0.27,0.235-0.555,0.299-0.857h1.456c0.338,0,0.611-0.271,0.612-0.611v-0.61C26.085,99.776,25.812,99.502,25.474,99.502z
						 M20.434,102.099c-0.843,0-1.527-0.682-1.527-1.527c0-0.844,0.684-1.526,1.527-1.526c0.844,0,1.528,0.683,1.528,1.526
						C21.962,101.417,21.278,102.099,20.434,102.099z"/>
				</g>
			</g>
			<g>
				<g>
					<path fill="#014260" d="M30.697,92.89h-0.976c-0.059-0.186-0.139-0.362-0.238-0.528l0.646-0.648
						c0.153-0.15,0.153-0.397,0-0.549l-0.273-0.274c-0.152-0.152-0.398-0.152-0.55,0l-0.658,0.657
						c-0.178-0.102-0.37-0.18-0.575-0.232V90.46c0-0.214-0.174-0.389-0.389-0.389h-0.388c-0.215,0-0.39,0.175-0.39,0.389v0.855
						c-0.223,0.056-0.433,0.145-0.625,0.262l-0.551-0.55c-0.15-0.151-0.397-0.152-0.55,0l-0.275,0.274
						c-0.152,0.151-0.149,0.397,0.001,0.55l0.561,0.561c-0.119,0.207-0.208,0.432-0.259,0.671h-0.731c-0.215,0-0.39,0.173-0.39,0.39
						v0.387c0,0.214,0.175,0.388,0.39,0.388h0.782c0.07,0.235,0.177,0.451,0.314,0.647l-0.53,0.529c-0.15,0.153-0.15,0.399,0,0.551
						l0.274,0.274c0.152,0.151,0.399,0.151,0.551-0.001l0.591-0.589c0.198,0.098,0.414,0.169,0.642,0.207v0.813
						c0,0.214,0.174,0.389,0.389,0.389h0.389c0.215,0,0.39-0.174,0.39-0.389v-0.914c0.195-0.07,0.381-0.162,0.549-0.281l0.626,0.627
						c0.152,0.153,0.398,0.153,0.551,0l0.274-0.274c0.153-0.152,0.153-0.397-0.001-0.55L29.581,94.6
						c0.085-0.172,0.15-0.354,0.19-0.545h0.927c0.215,0,0.389-0.174,0.39-0.39v-0.389C31.085,93.065,30.912,92.89,30.697,92.89z
						 M27.49,94.542c-0.536,0-0.973-0.434-0.973-0.973c0-0.537,0.437-0.97,0.973-0.97c0.537,0,0.973,0.434,0.973,0.97
						C28.462,94.108,28.027,94.542,27.49,94.542z"/>
				</g>
			</g>
		</g>
		<g id="Suchen">
			<g>
				<g>
					<g>
						<path fill="#FFFFFF" d="M23.478,129.231c-0.145-0.16-0.132-0.409,0.027-0.553l3.31-3.007c0.16-0.145,0.408-0.132,0.553,0.027
							l1.182,1.307c0.144,0.16,0.132,0.409-0.027,0.554l-3.31,3.006c-0.159,0.145-0.408,0.133-0.552-0.027L23.478,129.231z"/>
					</g>
				</g>
			</g>
			<g>
				<path fill="#FFFFFF" d="M19.42,118.666c0.47,0,0.948,0.077,1.417,0.24c2.262,0.782,3.46,3.25,2.678,5.512
					c-0.62,1.792-2.299,2.917-4.095,2.917c-0.47,0-0.948-0.077-1.417-0.239c-2.262-0.783-3.46-3.25-2.678-5.512
					C15.946,119.791,17.625,118.667,19.42,118.666 M19.42,119.841c-1.345,0-2.544,0.854-2.984,2.127
					c-0.276,0.797-0.225,1.654,0.144,2.413c0.369,0.759,1.011,1.329,1.808,1.604c0.335,0.116,0.683,0.175,1.033,0.175
					c1.345,0,2.544-0.855,2.985-2.127c0.276-0.797,0.225-1.654-0.144-2.413c-0.369-0.759-1.011-1.329-1.808-1.604l0,0
					C20.118,119.899,19.771,119.841,19.42,119.841L19.42,119.841z"/>
			</g>
			<g id="New_Symbol_140">
				<path fill="#91A0AB" d="M28.74,123.951l0.829-1.344H15.086l5.172,8.374v8.177l4.138-2.068v-4.138v-1.971l0.582-0.942
					c0.455,0.206,0.956,0.327,1.486,0.327c1.997,0,3.621-1.625,3.621-3.621C30.086,125.614,29.554,124.616,28.74,123.951z
					 M26.465,129.331c-0.331,0-0.646-0.069-0.938-0.182l2.665-4.314c0.523,0.473,0.859,1.15,0.859,1.91
					C29.052,128.172,27.892,129.331,26.465,129.331z"/>
			</g>
		</g>
	</g>
</g>
<g>
	<g>
		<circle fill="#014260" cx="26.648" cy="213.156" r="5.6"/>
	</g>
	<g>
		<ellipse fill="#014260" cx="25.835" cy="227.878" rx="10.748" ry="7.677"/>
	</g>
	<g>
		<g>
			<path fill="#FFFFFF" d="M39.989,218.625c-1-0.998-2.626-0.998-3.631,0l-8.475,8.479c-1.005,1.002-1.005,2.629,0,3.629
				c1.003,1.006,2.626,1.006,3.632,0l8.474-8.475C40.994,221.255,40.994,219.626,39.989,218.625z"/>
			<path fill="#014260" d="M29.699,231.757c-0.758,0-1.47-0.297-2.007-0.834c-0.537-0.533-0.833-1.245-0.833-2.004
				c0-0.758,0.295-1.473,0.834-2.008l8.474-8.479c0.538-0.535,1.25-0.829,2.008-0.829c0.759,0,1.472,0.294,2.006,0.829
				c0.537,0.536,0.833,1.25,0.833,2.009s-0.296,1.472-0.833,2.007l-8.474,8.475C31.169,231.46,30.457,231.757,29.699,231.757z
				 M38.175,218.146c-0.614,0-1.191,0.238-1.626,0.67l-8.474,8.477c-0.436,0.435-0.675,1.012-0.675,1.625s0.24,1.188,0.674,1.621
				c0.435,0.436,1.011,0.676,1.624,0.676c0.613,0,1.19-0.24,1.625-0.676l8.473-8.474c0.435-0.433,0.674-1.01,0.674-1.624
				c0-0.615-0.239-1.191-0.674-1.626C39.365,218.384,38.789,218.146,38.175,218.146z"/>
		</g>
		<g>
			<path fill="#FFFFFF" d="M27.279,231.333c-0.465-0.463-0.763-1.031-0.905-1.631l-2.12,4.661l4.661-2.124
				C28.314,232.104,27.745,231.806,27.279,231.333z"/>
		</g>
	</g>
</g>
<g>
	<g>
		<path fill="#014260" d="M35.039,279.313c0,1.203-1.141,2.178-2.549,2.178H17.636c-1.408,0-2.549-0.975-2.549-2.178v-20.409
			c0-1.203,1.142-2.177,2.549-2.177H32.49c1.408,0,2.549,0.976,2.549,2.177V279.313z"/>
	</g>
	<g>
		<rect x="19.058" y="255.028" fill="#FFFFFF" width="1.114" height="30"/>
	</g>
	<g>
		<ellipse fill="#FFFFFF" cx="26.042" cy="265.042" rx="2.085" ry="1.967"/>
	</g>
	<g>
		<ellipse fill="#FFFFFF" cx="25.74" cy="270.212" rx="4.002" ry="2.696"/>
	</g>
	<g>
		<circle fill="#FFFFFF" cx="28.955" cy="264.816" r="2.232"/>
		<path fill="#014260" d="M28.955,267.403c-1.426,0-2.586-1.159-2.586-2.586c0-1.426,1.16-2.586,2.586-2.586
			c1.426,0,2.587,1.16,2.587,2.586C31.542,266.244,30.381,267.403,28.955,267.403z M28.955,262.938
			c-1.036,0-1.879,0.843-1.879,1.879s0.843,1.879,1.879,1.879s1.879-0.843,1.879-1.879S29.991,262.938,28.955,262.938z"/>
	</g>
	<g>
		<ellipse fill="#FFFFFF" cx="28.631" cy="270.687" rx="4.285" ry="3.061"/>
		<path fill="#014260" d="M28.631,274.101c-2.558,0-4.639-1.532-4.639-3.415s2.081-3.415,4.639-3.415s4.639,1.532,4.639,3.415
			C33.271,272.569,31.189,274.101,28.631,274.101z M28.631,267.979c-2.168,0-3.932,1.214-3.932,2.708
			c0,1.493,1.764,2.707,3.932,2.707s3.932-1.214,3.932-2.707C32.563,269.193,30.799,267.979,28.631,267.979z"/>
	</g>
</g>
<g>
	<path fill="#014260" d="M45.736,314.628c-0.464,0-0.843-0.379-0.843-0.844v-2.914c0-0.463-0.379-0.844-0.843-0.844H27.259
		c-0.464,0-1.111-0.268-1.439-0.596l-2.835-2.836c-0.328-0.328-0.976-0.596-1.439-0.596h-5.298c-0.464,0-0.843,0.379-0.843,0.842
		v2.343c0,0.464,0,0.983,0,1.157s0,0.693,0,1.158v18.655c0,0.464,0.379,0.845,0.843,0.845h3.081c0.464,0,1.223,0,1.686,0H44.05
		c0.464,0,1.043,0,1.287,0c0.246,0,0.498-0.377,0.563-0.836l2.091-14.701c0.065-0.459-0.261-0.834-0.724-0.834H45.736
		L45.736,314.628z"/>
	<rect x="15.086" y="311.88" fill="#FFFFFF" width="28.979" height="2.328"/>
	<circle fill="#FFFFFF" cx="31.514" cy="319.101" r="2.711"/>
	
		<ellipse transform="matrix(-0.0233 -0.9997 0.9997 -0.0233 -294.112 365.1183)" fill="#FFFFFF" cx="31.295" cy="326.225" rx="3.717" ry="5.204"/>
	
		<ellipse transform="matrix(-0.0232 -0.9997 0.9997 -0.0232 -296.1695 367.3264)" fill="#014260" cx="31.363" cy="328.349" rx="2.471" ry="5.204"/>
</g>
<g>
	<path fill="#004261" d="M38.103,171.747c-0.041-0.015-0.076-0.042-0.13-0.071c0.327-0.104,0.641-0.154,0.974-0.171
		c-0.019-0.026-0.023-0.042-0.033-0.052c-0.33-0.297-0.689-0.542-1.115-0.679c-0.152-0.049-0.303-0.103-0.474-0.161
		c0.087-0.063,0.149-0.114,0.216-0.161c0.086-0.058,0.181-0.11,0.266-0.17c0.056-0.041,0.05-0.07-0.016-0.088
		c-0.209-0.057-0.416-0.129-0.627-0.157c-0.77-0.104-1.526-0.037-2.271,0.16c0.024-1.38-0.641-2.457-1.679-3.372
		c-0.385-0.342-0.88-0.567-1.066-1.12c-0.085-0.251-0.454-0.227-0.594,0.016c-0.1,0.172-0.147,0.377-0.251,0.547
		c-0.777,1.261-0.751,2.578-0.295,3.931c0.021,0.064,0.034,0.131,0.063,0.252c-0.014,0.018-0.037,0.028-0.072,0.033
		c-0.159,0.018-0.322,0.028-0.475,0.074c-0.455,0.134-0.87,0.357-1.261,0.624c-0.037,0.025-0.063,0.043-0.082,0.051
		c-0.511-0.559-0.964-1.105-1.478-1.587c-0.505-0.477-1.116-0.771-1.844-0.751c-0.113,0.004-0.227-0.083-0.342-0.092
		c0.656-1.763,1.188-3.394,0.979-4.526c-0.205-1.114-0.565-2.157-1.264-3.051c-0.863-1.105-1.93-1.973-3.22-2.546
		c-0.303-0.134-0.597-0.15-0.851,0.104c-0.233,0.23-0.291,0.626-0.14,0.961c0.204,0.447,0.495,0.865,0.623,1.34
		c1.641,6.067-5.952,9.491-6.535,13.868c-0.232,2.065,1.291,4.911,4.14,8.09c1.039,1.16,1.879,1.783,3.129,2.365
		c1.187,0.551,2.491,0.771,3.787,0.86c1.837,0.125,4.016,0.196,5.772-0.464c0.346-0.129,1.002-0.389,1.173-0.764
		c0.232-0.51,2.063-5.112,1.576-6.938c-0.078-0.293,0.77-1.429,0.993-1.728c0.098-0.053,0.156-0.084,0.164-0.092
		c0.077-0.066,0.697-0.443,0.741-0.511c0.031-0.043,0.063-0.055,0.115-0.05c0.228,0.021,0.453,0.006,0.654-0.108
		c0.149-0.086,0.29-0.19,0.356-0.364c0.078-0.201,0.049-0.404,0.014-0.608c-0.061-0.345-0.344-0.602-0.673-0.618
		c-0.076-0.003-0.154,0-0.226,0.022c-0.163,0.05-0.266-0.051-0.388-0.129c0.511-0.42,1.02-0.831,1.6-1.139
		c0.25-0.134,0.508-0.25,0.764-0.376c0.049-0.024,0.096-0.05,0.143-0.076c-0.035-0.049-0.063-0.11-0.107-0.143
		C38.604,172.014,38.373,171.846,38.103,171.747z M27.669,178.638c-5.593-0.219-4.191-4.443-2.662-8.487
		c0.014,0.41-0.021,0.826,0.055,1.223c0.233,1.223,0.863,2.163,2.078,2.625c0.038,0.012,0.075,0.025,0.113,0.039
		c-0.263,0.244-0.443,0.533-0.579,0.853c-0.135,0.315-0.256,0.639-0.299,1c0.171-0.052,0.304-0.165,0.484-0.169
		c-0.032,0.064-0.06,0.119-0.085,0.172c-0.074,0.156-0.157,0.309-0.219,0.469c-0.144,0.375-0.25,0.756-0.264,1.16
		c-0.003,0.089,0.041,0.125,0.126,0.096c0.208-0.074,0.413-0.147,0.618-0.229c0.165-0.064,0.325-0.141,0.504-0.217
		c-0.112,0.339-0.188,0.666-0.16,1.021c0.329-0.087,0.605-0.258,0.915-0.371c-0.003,0.104-0.012,0.199-0.006,0.293
		c0.004,0.067,0.013,0.137,0.018,0.206C28.11,178.448,27.897,178.557,27.669,178.638z"/>
	<path fill="#FFFFFF" d="M24.24,169.721c0.315-0.655,0.605-1.26,0.896-1.865c0.306-0.639,0.481-1.301,0.465-1.987
		c-0.05-2.098-1.006-3.784-3.113-4.935c-0.04-0.021-0.085-0.036-0.168-0.073c0.098,0.202,0.181,0.368,0.261,0.535
		c0.409,0.856,0.514,1.75,0.23,2.643c-0.28,0.884-0.629,1.756-1.01,2.613c-0.442,0.997-0.664,2.005-0.525,3.06
		c0.009,0.071,0.024,0.14,0.064,0.214c0.224-1.071,0.606-2.084,1.416-2.96c-0.314,1.079-0.181,2.132,0.162,3.179
		c0.253-1.135,0.594-2.236,1.43-3.191C24.193,167.856,24.106,168.758,24.24,169.721z"/>
	<path fill="#004261" d="M32.381,185.378c0,0.549-0.251,2.048-0.558,2.048c-0.31,0-1.055-1.313-1.055-1.863
		c0-0.545,0.745-0.122,1.055-0.122C32.13,185.442,32.381,184.832,32.381,185.378z"/>
	<path fill="#004261" d="M33.294,184.271c0.326,0.441,1.017,1.794,0.77,1.977c-0.249,0.185-1.629-0.428-1.955-0.867
		c-0.326-0.441,0.525-0.543,0.773-0.729C33.13,184.47,32.968,183.832,33.294,184.271z"/>
	<path fill="#004261" d="M23.553,185.792c-0.377,0.396-1.591,1.31-1.814,1.098c-0.223-0.212,0.141-1.68,0.52-2.075
		c0.377-0.396,0.625,0.425,0.849,0.638C23.332,185.664,23.931,185.396,23.553,185.792z"/>
	<path fill="#004261" d="M24.979,185.619c-0.068,0.545-0.499,2-0.807,1.965c-0.305-0.039-0.884-1.435-0.816-1.978
		c0.066-0.544,0.756-0.03,1.062,0.006C24.724,185.65,25.046,185.076,24.979,185.619z"/>
</g>
<g id="Suchen_1_">
	<g>
		<g>
			<g>
				<g>
					<path fill="#FFFFFF" d="M18.652,363.658c-0.204-0.226-0.187-0.577,0.038-0.78l4.665-4.238c0.225-0.204,0.575-0.187,0.779,0.038
						l1.667,1.841c0.203,0.226,0.187,0.577-0.039,0.78l-4.665,4.238c-0.225,0.204-0.575,0.187-0.779-0.038L18.652,363.658z"/>
				</g>
			</g>
		</g>
		<g>
			<path fill="#FFFFFF" d="M29.836,348.766c0.663,0,1.336,0.108,1.998,0.338c3.188,1.102,4.877,4.58,3.774,7.768
				c-0.874,2.526-3.24,4.112-5.771,4.112c-0.663,0-1.336-0.109-1.998-0.338c-3.188-1.103-4.877-4.58-3.774-7.768
				C24.939,350.352,27.305,348.766,29.836,348.766 M29.836,350.421c-1.896,0-3.586,1.205-4.207,2.998
				c-0.389,1.124-0.317,2.331,0.203,3.4c0.52,1.07,1.424,1.874,2.548,2.262c0.473,0.164,0.963,0.247,1.457,0.247
				c1.896,0,3.586-1.205,4.207-2.998c0.389-1.124,0.316-2.332-0.203-3.401c-0.52-1.069-1.425-1.873-2.548-2.262h0
				C30.82,350.503,30.33,350.421,29.836,350.421L29.836,350.421z"/>
		</g>
	</g>
	<g>
		<g display="none">
			<path display="inline" fill="#FFFFFF" d="M25.33,383.263c-0.284-0.354-1.294-0.018-1.035,0.551
				C24.604,383.519,25.076,383.531,25.33,383.263z"/>
		</g>
		<g>
			<path fill="#FFFFFF" d="M29.29,383.999c-1.057-0.488-2.05-1.484-2.881-2.531c-1.779-2.245-2.882-4.943-5.839-4.068
				c-0.612-1.139-2.608-0.306-2.065,0.963c-1.002,0.734-1.664,1.841-1.625,3.069c0.037,1.166,0.74,2.759,1.015,4.215
				c0.119,0.623,0.172,1.313,0.167,1.96c-0.002,0.528-0.198,1.621-0.077,1.871c0.358,0.753,1.993,0.329,2.889,0.079
				c1.298-0.364,2.224-0.769,3.34-1.288c2.409-1.124,4.56-2.258,5.256-3.88C29.558,384.173,29.468,384.08,29.29,383.999z
				 M25.492,387.144c-0.937,0.49-1.957,0.963-2.902,1.354c-1.46,0.605-3.028,1.105-4.099,0.826
				c2.021-2.279,7.225-4.702,10.272-4.778C28.314,385.551,26.902,386.406,25.492,387.144z"/>
			<path fill="#FFFFFF" d="M24.395,385.957c-0.676,0.203-1.392,0.586-2.01,0.939C22.937,388.249,25.123,387.293,24.395,385.957z"/>
		</g>
		<g display="none">
			<path display="inline" fill="#FFFFFF" d="M24.105,394.796c-0.137,0.09-0.115,0.152,0.048,0.139c0,0,2.339-0.195,3.8-0.801
				c0.945-0.395,1.967-0.866,2.902-1.355c1.412-0.736,3.057-2.399,3.057-2.399c0.117-0.116,0.082-0.174-0.075-0.125L24.105,394.796z
				 M27.75,392.53c0.618-0.354,1.333-0.736,2.01-0.938C30.488,392.93,28.302,393.884,27.75,392.53z"/>
		</g>
	</g>
</g>
</svg>
