<?xml version="1.0" encoding="utf-8"?>
<!-- Generator: Adobe Illustrator 15.0.0, SVG Export Plug-In  -->
<!DOCTYPE svg PUBLIC "-//W3C//DTD SVG 1.1//EN" "http://www.w3.org/Graphics/SVG/1.1/DTD/svg11.dtd" [
	<!ENTITY ns_flows "http://ns.adobe.com/Flows/1.0/">
]>
<svg version="1.1"
	 xmlns="http://www.w3.org/2000/svg" xmlns:xlink="http://www.w3.org/1999/xlink" xmlns:a="http://ns.adobe.com/AdobeSVGViewerExtensions/3.0/"
	 x="0px" y="0px" width="177px" height="2430px" viewBox="-1 -8.424 177 2430"
	 overflow="visible" enable-background="new -1 -8.424 177 2430" xml:space="preserve">
<defs>
</defs>
<path fill-rule="evenodd" clip-rule="evenodd" fill="#004260" d="M19.41,7.83c0-2.99,2.43-5.42,5.42-5.42c3,0,5.66,2.67,5.66,5.66
	c0,3-2.42,5.42-5.42,5.42C22.08,13.49,19.41,10.83,19.41,7.83 M36.55,16.92l-4.78-4.779c0.72-1.19,1.13-2.58,1.13-4.07
	C32.9,3.75,29.16,0,24.83,0C20.51,0,17,3.51,17,7.83c0,4.33,3.75,8.07,8.07,8.07c1.44,0,2.79-0.39,3.94-1.06l4.81,4.81
	c0.47,0.47,1.24,0.47,1.71,0l1.19-1.2C37.19,17.98,37.02,17.391,36.55,16.92"/>
<path fill-rule="evenodd" clip-rule="evenodd" fill="#004260" d="M23.85,61.47c0.41-0.21,0.46-0.489,0.83-0.51
	c0.42-0.02,0.77-0.16,1.25-0.27c0.42-0.09,1.18-0.521,1.85-0.58c0.57-0.04,1.68,0.03,1.98,0.58c-1.08,0.71-2.37,1.13-3.76,1.13
	C25.25,61.82,24.53,61.7,23.85,61.47 M25.06,48.24c-0.16,0.32-0.59,0.45-0.85,0.69c-0.57,0.52-0.82,0.44-1.12,0.94
	c-0.31,0.49-1.31,1.21-1.31,1.57c0,0.35,0.5,0.779,0.75,0.689c0.26-0.08,0.92-0.069,1.31,0.061c0.39,0.14,3.26,0.279,2.35,2.71
	c-0.29,0.77-1.56,0.64-1.9,1.92c-0.05,0.18-0.23,0.979-0.24,1.25C24.03,58.47,24.34,60,23.95,60c-0.4,0-1.45-1.37-1.45-1.62
	c0-0.24-0.28-1.11-0.28-1.85c0-0.75-1.26-0.74-1.26-1.72c0-0.891,0.69-1.341,0.53-1.761c-0.15-0.43-1.35-0.439-1.86-0.5
	C20.51,50.28,22.57,48.59,25.06,48.24 M32.82,55c0,1.561-0.53,3-1.41,4.15c-0.25-0.2-0.52-0.72-0.27-1.271
	c0.26-0.55,0.32-1.819,0.26-2.319c-0.05-0.49-0.31-1.69-1.01-1.7c-0.7-0.01-1.17-0.24-1.59-1.07c-0.86-1.72,1.62-2.05,0.76-3.01
	c-0.25-0.26-1.49,1.11-1.67-0.72c-0.01-0.13,0.11-0.32,0.28-0.53C30.87,49.44,32.82,52,32.82,55 M26,47c-4.41,0-8,3.59-8,8
	s3.59,8,8,8s8-3.59,8-8S30.41,47,26,47"/>
<polygon fill="#114871" points="28,89 21,89 24.5,93 "/>
<path fill="#004260" d="M19.82,130.13c-0.18-0.17-0.49-0.17-0.68,0c-0.19,0.181-0.19,0.46,0,0.63l5.52,5.11
	c0.19,0.17,0.49,0.17,0.68,0l5.52-5.11c0.19-0.17,0.19-0.45,0-0.63c-0.19-0.17-0.5-0.17-0.68,0L25,134.79L19.82,130.13z"/>
<path fill="#004260" d="M114.68,135.37c0.181,0.17,0.49,0.17,0.681,0c0.189-0.18,0.189-0.46,0-0.63l-5.521-5.11
	c-0.19-0.17-0.49-0.17-0.68,0l-5.521,5.11c-0.189,0.17-0.189,0.45,0,0.63c0.19,0.17,0.5,0.17,0.681,0l5.18-4.66L114.68,135.37z"/>
<path fill="#FFFFFF" d="M55.82,130.13c-0.18-0.17-0.49-0.17-0.68,0c-0.19,0.181-0.19,0.46,0,0.63l5.52,5.11
	c0.19,0.17,0.49,0.17,0.68,0l5.52-5.11c0.19-0.17,0.19-0.45,0-0.63c-0.19-0.17-0.5-0.17-0.68,0L61,134.79L55.82,130.13z"/>
<path fill="#FFFFFF" d="M151.18,135.87c0.181,0.17,0.49,0.17,0.681,0c0.189-0.18,0.189-0.46,0-0.63l-5.521-5.11
	c-0.19-0.17-0.49-0.17-0.68,0l-5.521,5.11c-0.189,0.17-0.189,0.45,0,0.63c0.19,0.17,0.5,0.17,0.681,0l5.18-4.66L151.18,135.87z"/>
<path fill="#333333" d="M24.15,264.11c-0.2,0.2-0.2,0.53,0,0.74c0.21,0.2,0.54,0.2,0.74,0l5.96-5.98c0.2-0.2,0.2-0.54,0-0.74
	l-5.96-5.979c-0.2-0.2-0.53-0.2-0.74,0c-0.2,0.21-0.2,0.54,0,0.74l5.44,5.61L24.15,264.11z"/>
<path fill-rule="evenodd" clip-rule="evenodd" fill="#C1C1C1" d="M15,258.5c0-6.35,5.15-11.5,11.5-11.5S38,252.15,38,258.5
	c0,6.351-5.15,11.5-11.5,11.5S15,264.851,15,258.5"/>
<path fill="#FFFFFF" d="M24.13,263.24c-0.17,0.18-0.17,0.46,0,0.63c0.18,0.17,0.46,0.17,0.63,0l5.11-5.06
	c0.17-0.17,0.17-0.45,0-0.62l-5.11-5.061c-0.17-0.17-0.45-0.17-0.63,0c-0.17,0.17-0.17,0.45,0,0.63l4.66,4.74L24.13,263.24z"/>
<path fill="#999999" d="M28.59,320.64L25.36,317l3.23-3.64c0.55-0.54,0.55-1.41,0-1.95c-0.55-0.55-1.44-0.55-1.99,0l-3.1,3.49
	l-3.1-3.49c-0.55-0.55-1.44-0.55-1.99,0c-0.55,0.54-0.55,1.41,0,1.95l3.23,3.64l-3.23,3.64c-0.55,0.54-0.55,1.41,0,1.95
	c0.55,0.55,1.44,0.55,1.99,0l3.1-3.49l3.1,3.49c0.55,0.55,1.44,0.55,1.99,0C29.14,322.05,29.14,321.18,28.59,320.64"/>
<path fill="#333333" d="M16.17,364.2c-0.27-0.27-0.7-0.27-0.97,0c-0.27,0.26-0.27,0.68,0,0.94l7.82,7.66
	c0.26,0.271,0.7,0.271,0.96,0l7.82-7.66c0.27-0.26,0.27-0.68,0-0.94c-0.27-0.27-0.7-0.27-0.97,0l-7.33,6.88L16.17,364.2z"/>
<path fill="#333333" d="M75.33,373.3c0.27,0.27,0.7,0.27,0.97,0c0.27-0.26,0.27-0.68,0-0.94l-7.82-7.66
	c-0.26-0.271-0.7-0.271-0.96,0l-7.82,7.66c-0.27,0.26-0.27,0.68,0,0.94c0.27,0.27,0.7,0.27,0.97,0l7.33-6.88L75.33,373.3z"/>
<path fill="#004260" d="M24.85,411.89c0.2-0.2,0.2-0.53,0-0.74c-0.21-0.2-0.54-0.2-0.74,0l-5.96,5.98c-0.2,0.2-0.2,0.54,0,0.74
	l5.96,5.98c0.2,0.2,0.53,0.2,0.74,0c0.2-0.21,0.2-0.54,0-0.74l-5.44-5.61L24.85,411.89z"/>
<path fill-rule="evenodd" clip-rule="evenodd" fill="#003F5F" d="M30.72,466.6c0-0.26-0.21-0.47-0.46-0.47H26.6
	c-0.24,0-0.45,0.21-0.45,0.47c0,0.12,0.05,0.24,0.14,0.32l1.23,1.23l-4.6,4.61c-0.05,0.05-0.08,0.11-0.08,0.17
	c0,0.05,0.03,0.12,0.08,0.16l0.8,0.81c0.05,0.04,0.11,0.07,0.17,0.07c0.05,0,0.12-0.03,0.16-0.07l4.61-4.62l1.27,1.25
	c0.09,0.08,0.2,0.13,0.33,0.13c0.25,0,0.46-0.2,0.46-0.45V466.6z M27.94,472.7c0-0.13-0.1-0.23-0.22-0.23h-0.44
	c-0.12,0-0.22,0.1-0.22,0.23v2.27c0,0.62-0.51,1.13-1.14,1.13h-5.89c-0.62,0-1.13-0.51-1.13-1.13v-5.89c0-0.63,0.51-1.14,1.13-1.14
	h4.99c0.13,0,0.23-0.1,0.23-0.22v-0.44c0-0.12-0.1-0.22-0.23-0.22h-4.99c-1.12,0-2,0.89-2,2.02v5.89c0,1.12,0.88,2,2,2h5.89
	c1.13,0,2.02-0.88,2.02-2V472.7z"/>
<path fill-rule="evenodd" clip-rule="evenodd" fill="#7FA0B0" d="M79,466.6c0-0.26-0.21-0.47-0.46-0.47h-3.66
	c-0.24,0-0.45,0.21-0.45,0.47c0,0.12,0.05,0.24,0.14,0.32l1.23,1.23l-4.6,4.61c-0.05,0.05-0.08,0.11-0.08,0.17
	c0,0.05,0.03,0.12,0.08,0.16l0.8,0.81c0.05,0.04,0.11,0.07,0.17,0.07c0.05,0,0.12-0.03,0.16-0.07l4.61-4.62l1.27,1.25
	c0.09,0.08,0.2,0.13,0.33,0.13c0.25,0,0.46-0.2,0.46-0.45V466.6z M76.22,472.7c0-0.13-0.1-0.23-0.22-0.23h-0.44
	c-0.12,0-0.22,0.1-0.22,0.23v2.27c0,0.62-0.51,1.13-1.14,1.13h-5.89c-0.62,0-1.13-0.51-1.13-1.13v-5.89c0-0.63,0.51-1.14,1.13-1.14
	h4.99c0.13,0,0.23-0.1,0.23-0.22v-0.44c0-0.12-0.1-0.22-0.23-0.22h-4.99c-1.12,0-2,0.89-2,2.02v5.89c0,1.12,0.88,2,2,2h5.89
	c1.13,0,2.02-0.88,2.02-2V472.7z"/>
<polygon fill-rule="evenodd" clip-rule="evenodd" fill="#C1C1C1" points="24,546 20,550 28,550 "/>
<rect x="23" y="549" fill-rule="evenodd" clip-rule="evenodd" fill="#C1C1C1" width="2" height="6"/>
<path fill="#FFFFFF" d="M22.19,589.16c-0.25-0.27-0.25-0.7,0-0.96c0.26-0.27,0.68-0.27,0.93,0l3.69,3.82
	c0.25,0.27,0.25,0.689,0,0.96l-3.69,3.82c-0.25,0.27-0.67,0.27-0.93,0c-0.25-0.26-0.25-0.69,0-0.96l3.02-3.34L22.19,589.16z"/>
<path fill-rule="evenodd" clip-rule="evenodd" fill="#878787" d="M29.94,641.18c0-0.1-0.06-0.23-0.14-0.31l-0.7-0.67
	c-0.08-0.09-0.21-0.14-0.32-0.14c-0.11,0-0.23,0.05-0.32,0.14L23,645.51l-5.46-5.31c-0.09-0.09-0.21-0.14-0.32-0.14
	c-0.13,0-0.24,0.05-0.32,0.14l-0.7,0.67c-0.08,0.08-0.14,0.21-0.14,0.31c0,0.11,0.06,0.23,0.14,0.32l6.48,6.3
	c0.08,0.08,0.21,0.14,0.32,0.14s0.24-0.06,0.32-0.14l6.48-6.3C29.88,641.41,29.94,641.29,29.94,641.18"/>
<path fill-rule="evenodd" clip-rule="evenodd" fill="#878787" d="M65.06,646.82c0,0.1,0.06,0.23,0.14,0.31l0.7,0.67
	c0.08,0.09,0.21,0.14,0.32,0.14c0.11,0,0.23-0.05,0.32-0.14l5.46-5.31l5.46,5.31c0.09,0.09,0.21,0.14,0.32,0.14
	c0.13,0,0.24-0.05,0.32-0.14l0.7-0.67c0.08-0.08,0.14-0.21,0.14-0.31c0-0.11-0.06-0.23-0.14-0.32l-6.48-6.3
	c-0.08-0.08-0.21-0.14-0.32-0.14s-0.24,0.06-0.32,0.14l-6.48,6.3C65.12,646.59,65.06,646.71,65.06,646.82"/>
<path fill-rule="evenodd" clip-rule="evenodd" fill="#003F5F" d="M28.92,681.99c-0.07-0.4-0.26-0.85-0.48-1.11l-2.51-2.61
	c-0.28-0.25-0.78-0.47-1.22-0.54v4.26H28.92z M28.94,683.06h-4.52c-0.49,0-0.88-0.36-0.88-0.8v-4.56h-4.7
	c-0.39,0-0.71,0.36-0.71,0.81v10.72c0,0.39,0.32,0.71,0.71,0.71h9.39c0.39,0,0.71-0.32,0.71-0.71V683.06z M27.06,685.78
	c0,0.16-0.12,0.28-0.29,0.28H20.3c-0.16,0-0.29-0.12-0.29-0.28v-0.56c0-0.16,0.13-0.28,0.29-0.28h6.47c0.17,0,0.29,0.12,0.29,0.28
	V685.78z M27.06,687.78c0,0.16-0.12,0.28-0.29,0.28H20.3c-0.16,0-0.29-0.12-0.29-0.28v-0.56c0-0.16,0.13-0.28,0.29-0.28h6.47
	c0.17,0,0.29,0.12,0.29,0.28V687.78z"/>
<path fill-rule="evenodd" clip-rule="evenodd" fill="#7FA0B0" d="M24.94,790.08c0-2.34-1.68-4.02-4.4-4.02
	c-2.73,0-4.41,1.68-4.41,4.02c0,0.51,0.06,1.04,0.25,1.5l3.03,6.49c0.2,0.36,0.65,0.59,1.13,0.59c0.47,0,0.93-0.23,1.13-0.59
	l3.03-6.49C24.89,791.12,24.94,790.59,24.94,790.08 M23.06,790.08c0,1.18-1.13,2.15-2.52,2.15s-2.53-0.97-2.53-2.15
	c0-1.18,1.14-2.14,2.53-2.14S23.06,788.9,23.06,790.08"/>
<path fill-rule="evenodd" clip-rule="evenodd" fill="#7FA0B0" d="M23.61,843.28c0-1.771-1.44-3.21-3.21-3.21
	c-1.78,0-3.22,1.439-3.22,3.21c0,1.78,1.44,3.22,3.22,3.22C22.17,846.5,23.61,845.06,23.61,843.28 M26.29,850.76
	c0-1.89-0.44-4.8-2.89-4.8c-0.26,0-1.36,1.17-3,1.17s-2.74-1.17-3-1.17c-2.46,0-2.9,2.91-2.9,4.8c0,1.36,0.9,2.17,2.24,2.17h7.32
	C25.39,852.93,26.29,852.12,26.29,850.76"/>
<path fill-rule="evenodd" clip-rule="evenodd" fill="#7FA0B0" d="M26.29,876.46c0-0.06,0-0.12-0.02-0.18
	c-0.06-0.17-0.47-0.36-0.64-0.44c-0.47-0.27-0.96-0.53-1.43-0.81c-0.22-0.13-0.49-0.38-0.74-0.38c-0.52,0-1.26,1.51-1.71,1.51
	c-0.23,0-0.52-0.2-0.72-0.32c-1.53-0.85-2.58-1.9-3.43-3.43c-0.12-0.2-0.33-0.49-0.33-0.72c0-0.45,1.52-1.2,1.52-1.71
	c0-0.26-0.25-0.53-0.39-0.74c-0.27-0.47-0.53-0.96-0.8-1.44c-0.08-0.16-0.27-0.57-0.44-0.63c-0.06-0.03-0.12-0.03-0.18-0.03
	c-0.3,0-0.89,0.14-1.16,0.26c-0.42,0.18-0.68,0.65-0.89,1.02c-0.27,0.5-0.43,1-0.43,1.56c0,0.78,0.32,1.49,0.58,2.2
	c0.18,0.51,0.41,1,0.69,1.46c0.88,1.43,2.6,3.14,4.02,4.02c0.47,0.29,0.96,0.52,1.47,0.7c0.71,0.26,1.42,0.58,2.2,0.58
	c0.56,0,1.06-0.16,1.55-0.43c0.38-0.21,0.85-0.479,1.03-0.89C26.16,877.35,26.29,876.76,26.29,876.46"/>
<path fill-rule="evenodd" clip-rule="evenodd" fill="#7FA0B0" d="M27.44,901.45c0-0.79-0.6-1.39-1.44-1.39h-0.56v-2.56
	c0-0.53-0.21-1.26-0.47-1.64l-1.25-1.33c-0.34-0.26-1-0.47-1.48-0.47h-6.02c-0.36,0-0.66,0.3-0.66,0.66v5.34h-0.53
	c-0.88,0-1.61,0.6-1.61,1.39v3.33c0,0.14,0.12,0.26,0.27,0.26h1.87v1.24c0,0.36,0.3,0.66,0.66,0.66h8.56c0.36,0,0.66-0.3,0.66-0.66
	v-1.24h1.78c0.11,0,0.22-0.12,0.22-0.26V901.45z M26.56,901.45c0,0.28-0.25,0.51-0.56,0.51s-0.56-0.229-0.56-0.51
	s0.25-0.51,0.56-0.51S26.56,901.17,26.56,901.45 M16.44,900.94v-6h5.8v1.6c0,0.53,0.39,0.96,0.87,0.96h1.45v3.44H16.44z
	 M16.44,904.01h8.12v2.05h-8.12V904.01z"/>
<path fill-rule="evenodd" clip-rule="evenodd" fill="#7FA0B0" d="M26.87,931.28c0-0.86-0.25-1.65-0.67-2.28
	c0.08-0.47,0.13-0.97,0.13-1.47c0-3.8-2.64-6.5-5.9-6.5c-0.42,0-0.85,0.05-1.25,0.13c-0.55-0.41-1.23-0.67-1.96-0.67
	c-1.78,0-3.22,1.42-3.22,3.29c0,0.86,0.25,1.65,0.67,2.29c-0.08,0.47-0.13,0.96-0.13,1.46c0,3.8,2.63,6.41,5.89,6.41
	c0.43,0,0.86-0.05,1.26-0.13c0.54,0.41,1.22,0.66,1.96,0.66c2.22,0,3.73-1.38,3.73-3.19H26.87z M23.83,929.16
	c0,1.98-1.65,2.9-3.22,2.9c-1.89,0-3.46-0.97-3.46-2.18c0-0.53,0.26-1.02,0.85-1.02c0.89,0,0.98,1.5,2.53,1.5
	c0.73,0,1.21-0.38,1.21-0.88c0-0.62-0.46-0.72-1.21-0.93l-1.22-0.35c-1.22-0.35-2.16-0.93-2.16-2.57c0-1.99,1.68-2.72,3.13-2.72
	c1.59,0,3.19,0.73,3.19,1.86c0,0.56-0.33,1.06-0.88,1.06c-0.81,0-0.83-1.12-2.15-1.12c-0.74,0-1.2,0.23-1.2,0.75
	c0,0.57,0.47,0.69,1.11,0.87l0.87,0.23C22.41,926.88,23.83,927.46,23.83,929.16"/>
<path fill-rule="evenodd" clip-rule="evenodd" fill="#7FA0B0" d="M27.94,950.44c0-0.73-0.6-1.34-1.32-1.34H14.4
	c-0.89,0-1.33,0.71-1.33,1.53c0,0.76,0.84,1.71,1.43,2.11c1.28,0.9,2.59,1.81,3.87,2.72c0.54,0.38,1.46,1.15,2.13,1.15h0.01
	c0.68,0,1.59-0.77,2.13-1.15c1.29-0.91,2.59-1.82,3.88-2.72C27.25,952.23,27.94,951.38,27.94,950.44 M27.94,952.91
	c-0.25,0.27-0.53,0.52-0.83,0.72c-1.38,0.95-2.78,1.91-4.13,2.89c-0.7,0.52-1.56,1.16-2.47,1.16H20.5c-0.91,0-1.77-0.64-2.47-1.16
	c-1.35-0.99-2.75-1.94-4.12-2.89c-0.31-0.2-0.59-0.45-0.84-0.72v6.65c0,0.73,0.6,1.34,1.33,1.34h12.22c0.73,0,1.32-0.61,1.32-1.34
	V952.91z"/>
<path fill-rule="evenodd" clip-rule="evenodd" fill="#114871" d="M42.57,1000.79l-5.11-3.44c-0.29-0.19-0.7-0.37-1.12-0.5
	s-0.86-0.21-1.22-0.21H20.43l1.72,9.72h12.97c0.36,0,0.8-0.08,1.22-0.21c0.42-0.13,0.83-0.31,1.12-0.5l5.11-3.44
	c0.29-0.2,0.43-0.45,0.43-0.71S42.86,1000.99,42.57,1000.79 M18.28,992h-1.94c-0.47,0-0.86,0.38-0.86,0.84v8.03h-7.6
	c-0.36,0-0.8,0.08-1.22,0.2c-0.43,0.13-0.83,0.31-1.12,0.5l-5.11,3.45c-0.29,0.19-0.43,0.45-0.43,0.7c0,0.26,0.14,0.51,0.43,0.71
	l5.11,3.44c0.29,0.19,0.69,0.37,1.12,0.5c0.42,0.13,0.86,0.21,1.22,0.21h7.6v18.58c0,0.46,0.39,0.84,0.86,0.84h1.94
	c0.47,0,0.86-0.38,0.86-0.84v-36.32C19.14,992.38,18.75,992,18.28,992"/>
<g>
	<defs>
		<rect id="SVGID_4_" x="78.308" y="1066.336" width="10.695" height="20.32"/>
	</defs>
	<clipPath id="SVGID_5_">
		<use xlink:href="#SVGID_4_"  overflow="visible"/>
	</clipPath>
	<path clip-path="url(#SVGID_5_)" fill="#FFFFFF" d="M78.541,1085.26c-0.311,0.32-0.311,0.84,0,1.16c0.31,0.32,0.819,0.32,1.13,0
		l9.099-9.34c0.311-0.32,0.311-0.84,0-1.16l-9.099-9.34c-0.311-0.32-0.811-0.32-1.13,0c-0.311,0.32-0.311,0.84,0,1.16l8.3,8.76
		L78.541,1085.26z"/>
</g>
<g>
	<defs>
		<rect id="SVGID_3_" x="10.998" y="1066.336" width="10.695" height="20.32"/>
	</defs>
	<clipPath id="SVGID_6_">
		<use xlink:href="#SVGID_3_"  overflow="visible"/>
	</clipPath>
	<path clip-path="url(#SVGID_6_)" fill="#FFFFFF" d="M21.46,1085.26c0.31,0.32,0.31,0.84,0,1.16c-0.31,0.32-0.82,0.32-1.13,0
		l-9.1-9.34c-0.31-0.32-0.31-0.84,0-1.16l9.1-9.34c0.31-0.32,0.81-0.32,1.13,0c0.31,0.32,0.31,0.84,0,1.16l-8.3,8.76L21.46,1085.26z
		"/>
</g>
<path fill="#999999" d="M13.13,1199.18c-0.17,0.181-0.17,0.49,0,0.681c0.18,0.19,0.46,0.19,0.63,0l5.11-5.521
	c0.17-0.189,0.17-0.489,0-0.68l-5.11-5.52c-0.17-0.19-0.45-0.19-0.63,0c-0.17,0.19-0.17,0.5,0,0.68l4.66,5.18L13.13,1199.18z"/>
<path fill="#999999" d="M13.13,1288.18c-0.17,0.181-0.17,0.49,0,0.681c0.18,0.19,0.46,0.19,0.63,0l5.11-5.521
	c0.17-0.189,0.17-0.489,0-0.68l-5.11-5.52c-0.17-0.19-0.45-0.19-0.63,0c-0.17,0.189-0.17,0.5,0,0.68l4.66,5.18L13.13,1288.18z"/>
<path fill="#004260" d="M13.13,1240.18c-0.17,0.181-0.17,0.49,0,0.681c0.18,0.19,0.46,0.19,0.63,0l5.11-5.521
	c0.17-0.189,0.17-0.489,0-0.68l-5.11-5.52c-0.17-0.19-0.45-0.19-0.63,0c-0.17,0.189-0.17,0.5,0,0.68l4.66,5.18L13.13,1240.18z"/>
<path fill="#FFFFFF" d="M13.13,1151.18c-0.17,0.18-0.17,0.49,0,0.68c0.18,0.19,0.46,0.19,0.63,0l5.11-5.52
	c0.17-0.19,0.17-0.49,0-0.68l-5.11-5.52c-0.17-0.19-0.45-0.19-0.63,0c-0.17,0.19-0.17,0.5,0,0.68l4.66,5.18L13.13,1151.18z"/>
<path fill="#999999" d="M58.82,1192.13c-0.18-0.17-0.49-0.17-0.68,0c-0.19,0.18-0.19,0.46,0,0.63l5.52,5.11
	c0.19,0.17,0.49,0.17,0.68,0l5.52-5.11c0.19-0.17,0.19-0.45,0-0.63c-0.19-0.17-0.5-0.17-0.68,0l-5.18,4.66L58.82,1192.13z"/>
<path fill="#999999" d="M117.18,1197.87c0.181,0.17,0.49,0.17,0.681,0c0.189-0.18,0.189-0.46,0-0.63l-5.521-5.11
	c-0.19-0.17-0.49-0.17-0.68,0l-5.521,5.11c-0.189,0.17-0.189,0.45,0,0.63c0.19,0.17,0.5,0.17,0.681,0l5.18-4.66L117.18,1197.87z"/>
<path fill="#999999" d="M58.82,1280.13c-0.18-0.17-0.49-0.17-0.68,0c-0.19,0.18-0.19,0.46,0,0.63l5.52,5.11
	c0.19,0.17,0.49,0.17,0.68,0l5.52-5.11c0.19-0.17,0.19-0.45,0-0.63c-0.19-0.17-0.5-0.17-0.68,0l-5.18,4.66L58.82,1280.13z"/>
<path fill="#999999" d="M117.18,1285.87c0.181,0.17,0.49,0.17,0.681,0c0.189-0.18,0.189-0.46,0-0.63l-5.521-5.11
	c-0.19-0.17-0.49-0.17-0.68,0l-5.521,5.11c-0.189,0.17-0.189,0.45,0,0.63c0.19,0.17,0.5,0.17,0.681,0l5.18-4.66L117.18,1285.87z"/>
<path fill="#004260" d="M58.82,1232.13c-0.18-0.17-0.49-0.17-0.68,0c-0.19,0.18-0.19,0.46,0,0.63l5.52,5.11
	c0.19,0.17,0.49,0.17,0.68,0l5.52-5.11c0.19-0.17,0.19-0.45,0-0.63c-0.19-0.17-0.5-0.17-0.68,0l-5.18,4.66L58.82,1232.13z"/>
<path fill="#004260" d="M117.18,1237.87c0.181,0.17,0.49,0.17,0.681,0c0.189-0.18,0.189-0.46,0-0.63l-5.521-5.11
	c-0.19-0.17-0.49-0.17-0.68,0l-5.521,5.11c-0.189,0.17-0.189,0.45,0,0.63c0.19,0.17,0.5,0.17,0.681,0l5.18-4.66L117.18,1237.87z"/>
<path fill="#FFFFFF" d="M58.82,1144.13c-0.18-0.17-0.49-0.17-0.68,0c-0.19,0.18-0.19,0.46,0,0.63l5.52,5.11
	c0.19,0.17,0.49,0.17,0.68,0l5.52-5.11c0.19-0.17,0.19-0.45,0-0.63c-0.19-0.17-0.5-0.17-0.68,0l-5.18,4.66L58.82,1144.13z"/>
<path fill="#FFFFFF" d="M117.18,1149.87c0.181,0.17,0.49,0.17,0.681,0c0.189-0.18,0.189-0.46,0-0.63l-5.521-5.11
	c-0.19-0.17-0.49-0.17-0.68,0l-5.521,5.11c-0.189,0.17-0.189,0.45,0,0.63c0.19,0.17,0.5,0.17,0.681,0l5.18-4.66L117.18,1149.87z"/>
<path fill-rule="evenodd" clip-rule="evenodd" fill="#004260" d="M11.17,1877.05c0-2.7,2.18-4.88,4.88-4.88
	c2.69,0,5.09,2.4,5.09,5.09c0,2.7-2.18,4.88-4.88,4.88C13.57,1882.14,11.17,1879.74,11.17,1877.05 M26.6,1885.23l-4.31-4.311
	c0.65-1.06,1.02-2.32,1.02-3.66c0-3.89-3.37-7.26-7.26-7.26c-3.89,0-7.05,3.16-7.05,7.05c0,3.891,3.37,7.26,7.26,7.26
	c1.3,0,2.51-0.35,3.55-0.96l4.33,4.33c0.43,0.431,1.11,0.431,1.54,0l1.07-1.069C27.17,1886.19,27.02,1885.65,26.6,1885.23"/>
<path fill-rule="evenodd" clip-rule="evenodd" fill="#004260" d="M14.59,1927.28c0.46-0.24,0.5-0.55,0.92-0.57
	c0.48-0.02,0.87-0.19,1.41-0.31c0.48-0.101,1.33-0.591,2.09-0.65c0.63-0.05,1.88,0.04,2.22,0.65c-1.21,0.8-2.67,1.279-4.23,1.279
	C16.16,1927.68,15.35,1927.54,14.59,1927.28 M15.95,1912.4c-0.19,0.359-0.67,0.5-0.97,0.77c-0.64,0.58-0.91,0.5-1.26,1.061
	c-0.35,0.56-1.47,1.359-1.47,1.76c0,0.399,0.57,0.88,0.85,0.79c0.28-0.101,1.03-0.09,1.47,0.06c0.44,0.16,3.67,0.311,2.64,3.04
	c-0.33,0.87-1.75,0.72-2.14,2.16c-0.05,0.21-0.25,1.11-0.26,1.41c-0.03,0.45,0.32,2.17-0.12,2.17s-1.63-1.53-1.63-1.811
	c0-0.279-0.31-1.26-0.31-2.09c0-0.84-1.42-0.83-1.42-1.939c0-1,0.77-1.5,0.6-1.98c-0.17-0.479-1.53-0.49-2.09-0.55
	C10.82,1914.69,13.15,1912.79,15.95,1912.4 M24.68,1920c0,1.76-0.6,3.38-1.59,4.67c-0.29-0.22-0.58-0.81-0.3-1.43
	c0.28-0.62,0.35-2.05,0.29-2.61c-0.06-0.55-0.35-1.899-1.14-1.91c-0.78-0.01-1.32-0.27-1.79-1.2c-0.97-1.939,1.82-2.31,0.85-3.39
	c-0.27-0.3-1.67,1.24-1.88-0.81c-0.01-0.15,0.13-0.37,0.32-0.601C22.48,1913.75,24.68,1916.62,24.68,1920 M17,1911
	c-4.96,0-9,4.04-9,9s4.04,9,9,9s9-4.04,9-9S21.96,1911,17,1911"/>
<rect x="9" y="1844.891" fill-rule="evenodd" clip-rule="evenodd" fill="#004260" width="22" height="2.729"/>
<rect x="9" y="1838.76" fill-rule="evenodd" clip-rule="evenodd" fill="#004260" width="22" height="2.73"/>
<rect x="9" y="1832.62" fill-rule="evenodd" clip-rule="evenodd" fill="#004260" width="22" height="2.73"/>
<path fill-rule="evenodd" clip-rule="evenodd" fill="#004260" d="M23.72,1951.43l-6.1,11.32L17,1957.6L23.72,1951.43z
	 M25.73,1949.27c-0.64-0.649-1.26-0.039-3.36,0.971c-5.6,2.689-15.37,8.17-15.37,8.17l8.39,1.2l1.2,8.39c0,0,5.48-9.77,8.17-15.37
	C25.77,1950.53,26.38,1949.91,25.73,1949.27"/>
<path fill="#333333" d="M26.56,2020.76c0.33,0.32,0.86,0.32,1.19,0s0.33-0.84,0-1.16l-9.65-9.359c-0.33-0.32-0.87-0.32-1.2,0
	l-9.65,9.359c-0.33,0.32-0.33,0.84,0,1.16s0.86,0.32,1.19,0l9.06-8.54L26.56,2020.76z"/>
<path fill="#333333" d="M9.44,2050.24c-0.33-0.32-0.86-0.32-1.19,0s-0.33,0.84,0,1.16l9.65,9.359c0.33,0.32,0.87,0.32,1.2,0
	l9.65-9.359c0.33-0.32,0.33-0.84,0-1.16s-0.86-0.32-1.19,0l-9.06,8.54L9.44,2050.24z"/>
<path fill="#80A1B0" d="M9.44,2092.24c-0.33-0.32-0.86-0.32-1.19,0s-0.33,0.84,0,1.16l9.65,9.359c0.33,0.32,0.87,0.32,1.2,0
	l9.65-9.359c0.33-0.32,0.33-0.84,0-1.16s-0.86-0.32-1.19,0l-9.06,8.54L9.44,2092.24z"/>
<path fill-rule="evenodd" clip-rule="evenodd" fill="#004260" d="M8.88,1351.16v-1.84c0-0.96,0.1-1.48,1.57-1.48h1.98v-3.68H9.27
	c-3.81,0-5.15,1.79-5.15,4.78v2.22H1.75v3.68h2.37v11.5h4.76v-11.5h3.16l0.42-3.68H8.88z"/>
<path fill-rule="evenodd" clip-rule="evenodd" fill="#004260" d="M21.58,1421.28c-0.08-0.141-0.23-0.221-0.43-0.221h-3.37
	c-0.5,0-0.71,0.32-0.89,0.63l-7.42,13.03c0,0,0,0.01,4.73,8.601c0.16,0.29,0.42,0.619,0.93,0.619h3.34c0.19,0,0.35-0.069,0.44-0.21
	c0.09-0.14,0.09-0.329-0.01-0.51l-4.7-8.5c-0.01,0-0.01-0.02,0-0.02l7.38-12.91C21.69,1421.61,21.69,1421.42,21.58,1421.28
	 M10.32,1430.15c0,0-0.02-0.011-2.29-3.95c-0.17-0.29-0.42-0.62-0.93-0.62H3.76c-0.19,0-0.36,0.07-0.44,0.21
	c-0.1,0.13-0.09,0.33,0.01,0.51l2.25,3.851c0.01,0.02,0.01,0.02,0,0.02l-3.54,6.19c-0.09,0.18-0.08,0.359,0,0.5
	c0.09,0.14,0.24,0.229,0.44,0.229h3.34c0.49,0,0.73-0.33,0.91-0.63C10.18,1430.39,10.32,1430.15,10.32,1430.15"/>
<path fill-rule="evenodd" clip-rule="evenodd" fill="#004260" d="M24.94,1465.21c-0.8,0.34-1.67,0.6-2.58,0.69
	c0.93-0.551,1.64-1.431,1.98-2.48c-0.87,0.521-1.84,0.89-2.85,1.09c-0.82-0.88-1.99-1.42-3.28-1.42c-2.48,0-4.48,2.021-4.48,4.5
	c0,0.351,0.04,0.7,0.11,1.03c-3.72-0.19-7.04-1.98-9.25-4.71c-0.39,0.67-0.61,1.439-0.61,2.27c0,1.561,0.79,2.94,2,3.75
	c-0.74-0.02-1.43-0.229-2.03-0.569v0.06c0,2.19,1.54,4,3.6,4.42c-0.38,0.101-0.78,0.15-1.18,0.15c-0.29,0-0.57-0.03-0.85-0.07
	c0.57,1.79,2.22,3.08,4.19,3.13c-1.54,1.21-3.47,1.92-5.56,1.92c-0.38,0-0.73-0.01-1.09-0.05c1.99,1.28,4.35,2.021,6.89,2.021
	c8.25,0,12.76-6.86,12.76-12.82c0-0.19,0-0.39-0.01-0.59C23.57,1466.89,24.34,1466.1,24.94,1465.21"/>
<path fill-rule="evenodd" clip-rule="evenodd" fill="#004260" d="M23.84,1512.44c0-4.271-2.3-6.28-5.41-6.28
	c-2.55-0.37-3.67,0.89-4.29,1.73l0.03,0.64v-2.05H9.45c0,0,0.06,1.319,0,13.88h4.72v-7.71c0-0.42,0.05-0.83,0.16-1.13
	c0.35-0.83,1.12-1.681,2.42-1.681c1.71,0,2.41,1.271,2.41,3.13v7.391h4.68V1512.44z M7.14,1501.84c-0.01-0.979-1.01-2.02-2.61-2.02
	c-1.59,0-2.64,1.04-2.64,2.39c0,1.32,1,2.38,2.58,2.38H4.5c1.63,0,2.66-1.06,2.64-2.38V1501.84z M6.84,1506.11H2.16v13.6h4.68
	V1506.11z"/>
<path fill-rule="evenodd" clip-rule="evenodd" fill="#9F9F9F" d="M21.94,1565.3c0-0.68-0.58-1.24-1.25-1.24H9.3
	c-0.83,0-1.24,0.65-1.24,1.41c0,0.7,0.78,1.58,1.33,1.95c1.2,0.83,2.42,1.67,3.62,2.51c0.5,0.34,1.35,1.05,1.98,1.05H15
	c0.63,0,1.48-0.71,1.98-1.05c1.2-0.84,2.42-1.68,3.62-2.51C21.28,1566.95,21.94,1566.17,21.94,1565.3 M21.94,1567.57
	c-0.25,0.26-0.51,0.479-0.79,0.67c-1.29,0.88-2.59,1.76-3.85,2.67c-0.65,0.479-1.45,1.06-2.3,1.06h-0.01c-0.85,0-1.65-0.58-2.3-1.06
	c-1.26-0.92-2.56-1.79-3.85-2.67c-0.28-0.19-0.55-0.41-0.78-0.67v6.13c0,0.68,0.56,1.239,1.24,1.239h11.39
	c0.68,0,1.25-0.56,1.25-1.239V1567.57z"/>
<path fill="#8C8C8C" d="M31.82,192.22l-6.24-5.979c-0.32-0.32-0.84-0.32-1.16,0l-6.24,5.979c-0.32,0.32-0.2,0.58,0.26,0.58h1.3
	v4.601c0,0.33,0.02,0.6,0.65,0.6h3.02v-4.61h3.17V198h3.19c0.47,0,0.49-0.27,0.49-0.6V192.8h1.3
	C32.02,192.8,32.14,192.54,31.82,192.22"/>
<path fill="#004260" d="M78.82,192.22l-6.24-5.979c-0.32-0.32-0.84-0.32-1.16,0l-6.24,5.979c-0.32,0.32-0.2,0.58,0.26,0.58h1.3
	v4.601c0,0.33,0.02,0.6,0.65,0.6h3.02v-4.61h3.17V198h3.19c0.47,0,0.49-0.27,0.49-0.6V192.8h1.3
	C79.02,192.8,79.14,192.54,78.82,192.22"/>
<path fill-rule="evenodd" clip-rule="evenodd" fill="#999999" d="M16.99,734.03c-1.65,0-2.99,1.33-2.99,2.979
	c0,1.65,1.34,2.99,2.99,2.99c1.65,0,2.98-1.34,2.98-2.99C19.97,735.36,18.64,734.03,16.99,734.03 M14,726.23v3.12
	c5.88,0,10.65,4.77,10.65,10.65h3.12C27.77,732.4,21.6,726.23,14,726.23 M14,720v3.12c9.32,0,16.88,7.56,16.88,16.88H34
	C34,728.95,25.05,720,14,720"/>
<path fill="#888888" d="M55.24,1652.561c-0.32,0.329-0.32,0.859,0,1.189c0.32,0.33,0.84,0.33,1.16,0l9.36-9.65
	c0.32-0.329,0.32-0.869,0-1.199l-9.36-9.65c-0.32-0.33-0.84-0.33-1.16,0c-0.32,0.33-0.32,0.86,0,1.19l8.54,9.06L55.24,1652.561z"/>
<path fill="#888888" d="M16.76,1634.439c0.32-0.329,0.32-0.859,0-1.189c-0.32-0.33-0.84-0.33-1.16,0l-9.36,9.65
	c-0.32,0.329-0.32,0.869,0,1.199l9.36,9.65c0.32,0.33,0.84,0.33,1.16,0c0.32-0.33,0.32-0.86,0-1.19l-8.54-9.06L16.76,1634.439z"/>
<path fill-rule="evenodd" clip-rule="evenodd" fill="#999999" d="M14.41,1710.83c0-2.99,2.43-5.42,5.42-5.42
	c3,0,5.66,2.67,5.66,5.66c0,3-2.42,5.42-5.42,5.42C17.08,1716.49,14.41,1713.83,14.41,1710.83 M31.55,1719.92l-4.78-4.78
	c0.72-1.189,1.13-2.58,1.13-4.069c0-4.32-3.74-8.07-8.07-8.07c-4.32,0-7.83,3.51-7.83,7.83c0,4.33,3.75,8.07,8.07,8.07
	c1.44,0,2.79-0.391,3.94-1.061l4.81,4.811c0.47,0.47,1.24,0.47,1.71,0l1.19-1.2C32.19,1720.979,32.02,1720.39,31.55,1719.92"/>
<path fill-rule="evenodd" clip-rule="evenodd" fill="#004260" d="M18,509.5c0-3.59,2.91-6.5,6.5-6.5s6.5,2.91,6.5,6.5
	s-2.91,6.5-6.5,6.5S18,513.09,18,509.5"/>
<path fill="#FFFFFF" d="M23.28,512.86c-0.11,0.13-0.11,0.33,0,0.45c0.1,0.12,0.26,0.12,0.36,0l2.95-3.59c0.1-0.12,0.1-0.32,0-0.44
	l-2.95-3.59c-0.1-0.12-0.26-0.12-0.36,0c-0.11,0.12-0.11,0.32,0,0.45l2.69,3.36L23.28,512.86z"/>
<path fill="#FFFFFF" d="M23.18,512.76c-0.1,0.12-0.01,0.43,0.1,0.55c0.1,0.12,0.26,0.12,0.36,0l2.95-3.59c0.1-0.12,0.1-0.32,0-0.44
	l-2.95-3.59c-0.1-0.12-0.26-0.12-0.36,0c-0.11,0.12-0.23,0.36-0.13,0.49l2.54,3.32L23.18,512.76z"/>
<polygon fill="#114871" points="106,93 113,93 109.5,89 "/>
<path fill="#333333" d="M21,2142.356c0,1.934-1.567,3.5-3.5,3.5s-3.5-1.566-3.5-3.5c0-1.933,1.567-3.5,3.5-3.5
	S21,2140.424,21,2142.356"/>
<path fill="#80A1B0" d="M106.561,2102.76c0.329,0.32,0.859,0.32,1.189,0s0.33-0.84,0-1.16l-9.65-9.359
	c-0.329-0.32-0.869-0.32-1.199,0l-9.65,9.359c-0.33,0.32-0.33,0.84,0,1.16s0.86,0.32,1.19,0l9.06-8.54L106.561,2102.76z"/>
<path fill-rule="evenodd" clip-rule="evenodd" fill="#999999" d="M11.308,2186.712c0-2.243,1.823-4.065,4.065-4.065
	c2.25,0,4.245,2.002,4.245,4.244c0,2.25-1.815,4.066-4.065,4.066C13.311,2190.957,11.308,2188.962,11.308,2186.712 M24.163,2193.528
	l-3.585-3.585c0.54-0.892,0.847-1.935,0.847-3.053c0-3.239-2.805-6.052-6.052-6.052c-3.24,0-5.873,2.632-5.873,5.873
	c0,3.247,2.813,6.052,6.053,6.052c1.08,0,2.093-0.293,2.955-0.795l3.608,3.608c0.352,0.352,0.93,0.352,1.282,0l0.893-0.9
	C24.643,2194.323,24.515,2193.882,24.163,2193.528"/>
<g>
	<defs>
		<rect id="SVGID_2_" x="100.714" y="640.056" width="13.88" height="7.88"/>
	</defs>
	<clipPath id="SVGID_7_">
		<use xlink:href="#SVGID_2_"  overflow="visible"/>
	</clipPath>
	<path clip-path="url(#SVGID_7_)" fill-rule="evenodd" clip-rule="evenodd" fill="#878787" d="M114.594,641.18
		c0-0.1-0.06-0.23-0.14-0.31l-0.7-0.67c-0.08-0.09-0.21-0.14-0.32-0.14c-0.109,0-0.229,0.05-0.319,0.14l-5.46,5.31l-5.46-5.31
		c-0.091-0.09-0.21-0.14-0.32-0.14c-0.13,0-0.24,0.05-0.32,0.14l-0.7,0.67c-0.079,0.08-0.14,0.21-0.14,0.31
		c0,0.11,0.061,0.23,0.14,0.32l6.48,6.3c0.08,0.08,0.21,0.14,0.32,0.14c0.109,0,0.239-0.06,0.319-0.14l6.48-6.3
		C114.534,641.41,114.594,641.29,114.594,641.18"/>
</g>
<g>
	<defs>
		<rect id="SVGID_1_" x="149.714" y="640.056" width="13.88" height="7.88"/>
	</defs>
	<clipPath id="SVGID_8_">
		<use xlink:href="#SVGID_1_"  overflow="visible"/>
	</clipPath>
	<path clip-path="url(#SVGID_8_)" fill-rule="evenodd" clip-rule="evenodd" fill="#878787" d="M149.714,646.82
		c0,0.1,0.061,0.23,0.141,0.31l0.7,0.67c0.079,0.09,0.21,0.14,0.319,0.14c0.11,0,0.23-0.05,0.32-0.14l5.46-5.31l5.46,5.31
		c0.09,0.09,0.21,0.14,0.32,0.14c0.13,0,0.239-0.05,0.319-0.14l0.7-0.67c0.08-0.08,0.14-0.21,0.14-0.31c0-0.11-0.06-0.23-0.14-0.32
		l-6.479-6.3c-0.08-0.08-0.21-0.14-0.32-0.14s-0.24,0.06-0.32,0.14l-6.479,6.3C149.774,646.59,149.714,646.71,149.714,646.82"/>
</g>
<path fill-rule="evenodd" clip-rule="evenodd" fill="#999999" d="M22.62,2226.767c0.08-0.08,0.08-0.221,0-0.301
	c-0.09-0.08-0.22-0.08-0.3,0l-1.97,1.91c-0.09,0.101-0.09,0.25,0,0.351c0.06,0.05,0.12,0.069,0.18,0.069
	c0.06,0,0.13-0.02,0.18-0.069L22.62,2226.767z M19.54,2225.776c0-0.12-0.09-0.22-0.21-0.22c-0.11,0-0.2,0.1-0.2,0.22v2.28
	c0,0.14,0.09,0.25,0.2,0.25c0.12,0,0.21-0.11,0.21-0.25V2225.776z M23.54,2229.746c0-0.11-0.11-0.2-0.23-0.2h-2.28
	c-0.14,0-0.25,0.09-0.25,0.2c0,0.12,0.11,0.2,0.25,0.2h2.28C23.43,2229.946,23.54,2229.866,23.54,2229.746 M18.95,2229.146
	c-0.03-0.311-0.12-0.45-0.25-0.57l-2.41-2.35c-0.39-0.36-0.92-0.561-1.47-0.561c-0.56,0-1.08,0.19-1.47,0.55l-1,0.98
	c-0.36,0.39-0.56,0.91-0.56,1.47c0,0.55,0.2,1.07,0.56,1.47l2.36,2.421c0.12,0.13,0.26,0.22,0.4,0.31l0.11-1.59l-1.98-1.95
	c-0.13-0.14-0.21-0.32-0.21-0.53c0-0.189,0.08-0.38,0.21-0.52l1.06-1.13c0.13-0.141,0.3-0.21,0.49-0.21s0.36,0.069,0.49,0.21
	l1.93,2.14L18.95,2229.146z M23.42,2234.496c0-0.56-0.2-1.08-0.56-1.47l-2.36-2.431c-0.12-0.119-0.26-0.21-0.4-0.3l-0.13,1.721
	l1.98,1.989c0.13,0.13,0.2,0.301,0.2,0.49c0,0.18-0.07,0.35-0.2,0.48l-1.06,1.06c-0.26,0.25-0.73,0.24-0.99-0.01l-1.97-1.98
	l-1.72,0.13c0.08,0.15,0.18,0.28,0.3,0.41l2.28,2.24c0.38,0.4,0.87,0.61,1.47,0.61c0.6,0,1.16-0.21,1.58-0.601l1.02-1.05
	c0.36-0.4,0.56-0.92,0.56-1.479V2234.496z M14.31,2233.416c0-0.12-0.11-0.21-0.24-0.21h-2.31c-0.13,0-0.23,0.09-0.23,0.21
	c0,0.11,0.1,0.2,0.23,0.2h2.31C14.2,2233.616,14.31,2233.526,14.31,2233.416 M15.87,2235.006c0-0.13-0.09-0.229-0.21-0.229
	c-0.11,0-0.2,0.1-0.2,0.229v2.32c0,0.13,0.09,0.23,0.2,0.23c0.12,0,0.21-0.101,0.21-0.23V2235.006z M14.7,2234.706
	c0.09-0.09,0.09-0.24,0-0.33c-0.09-0.09-0.24-0.09-0.33,0l-1.85,1.86c-0.09,0.09-0.09,0.24,0,0.33c0.05,0.04,0.11,0.069,0.17,0.069
	s0.11-0.029,0.16-0.069L14.7,2234.706z"/>
<path fill-rule="evenodd" clip-rule="evenodd" fill="#FF0000" d="M22.62,2270.776c0.08-0.09,0.08-0.22,0-0.3
	c-0.09-0.08-0.22-0.08-0.3,0l-1.97,1.899c-0.09,0.101-0.09,0.26,0,0.36c0.06,0.05,0.12,0.07,0.18,0.07c0.06,0,0.13-0.021,0.18-0.07
	L22.62,2270.776z M19.54,2269.776c0-0.12-0.09-0.22-0.21-0.22c-0.11,0-0.2,0.1-0.2,0.22v2.28c0,0.14,0.09,0.25,0.2,0.25
	c0.12,0,0.21-0.11,0.21-0.25V2269.776z M23.54,2273.756c0-0.109-0.11-0.199-0.23-0.199h-2.28c-0.14,0-0.25,0.09-0.25,0.199
	c0,0.11,0.11,0.2,0.25,0.2h2.28C23.43,2273.956,23.54,2273.866,23.54,2273.756 M18.95,2273.146c-0.03-0.301-0.12-0.44-0.25-0.561
	l-2.41-2.35c-0.39-0.36-0.92-0.561-1.47-0.561c-0.56,0-1.08,0.19-1.47,0.54l-1,0.99c-0.36,0.39-0.56,0.91-0.56,1.47
	c0,0.551,0.2,1.07,0.56,1.471l2.36,2.42c0.12,0.12,0.26,0.22,0.4,0.3l0.11-1.59l-1.98-1.94c-0.13-0.14-0.21-0.33-0.21-0.529
	c0-0.19,0.08-0.381,0.21-0.521l1.06-1.14c0.13-0.13,0.3-0.21,0.49-0.21s0.36,0.08,0.49,0.22l1.93,2.13L18.95,2273.146z
	 M23.42,2278.506c0-0.56-0.2-1.08-0.56-1.479l-2.36-2.42c-0.12-0.12-0.26-0.221-0.4-0.3l-0.13,1.72l1.98,1.99
	c0.13,0.13,0.2,0.3,0.2,0.489c0,0.181-0.07,0.351-0.2,0.48l-1.06,1.05c-0.26,0.26-0.73,0.25-0.99,0l-1.97-1.979l-1.72,0.13
	c0.08,0.14,0.18,0.279,0.3,0.399l2.28,2.25c0.38,0.391,0.87,0.61,1.47,0.61c0.6,0,1.16-0.21,1.58-0.601l1.02-1.06
	c0.36-0.39,0.56-0.91,0.56-1.47V2278.506z M14.31,2277.416c0-0.109-0.11-0.2-0.24-0.2h-2.31c-0.13,0-0.23,0.091-0.23,0.2
	c0,0.12,0.1,0.2,0.23,0.2h2.31C14.2,2277.616,14.31,2277.536,14.31,2277.416 M15.87,2279.017c0-0.131-0.09-0.24-0.21-0.24
	c-0.11,0-0.2,0.109-0.2,0.24v2.31c0,0.13,0.09,0.24,0.2,0.24c0.12,0,0.21-0.11,0.21-0.24V2279.017z M14.7,2278.716
	c0.09-0.09,0.09-0.239,0-0.33c-0.09-0.09-0.24-0.09-0.33,0l-1.85,1.851c-0.09,0.1-0.09,0.24,0,0.34c0.05,0.04,0.11,0.06,0.17,0.06
	s0.11-0.02,0.16-0.06L14.7,2278.716z"/>
<path fill-rule="evenodd" clip-rule="evenodd" fill="#999999" d="M17.804,2315.451c-0.15-0.3-0.46-0.49-0.8-0.49
	c-0.34,0-0.65,0.19-0.81,0.49l-5.52,10.43c-0.16,0.28-0.15,0.63,0.02,0.91c0.16,0.29,0.46,0.46,0.79,0.46h11.04
	c0.32,0,0.63-0.17,0.79-0.46c0.16-0.28,0.17-0.63,0.02-0.91L17.804,2315.451z M17.914,2322.221c-0.01,0.091-0.12,0.16-0.25,0.16
	h-1.33c-0.14,0-0.24-0.069-0.24-0.16l-0.13-3.319c0-0.04,0.03-0.11,0.08-0.15c0.04-0.03,0.1-0.08,0.17-0.08h1.58
	c0.06,0,0.13,0.05,0.17,0.08c0.05,0.04,0.07,0.101,0.07,0.141L17.914,2322.221z M17.924,2325.121c0,0.15-0.1,0.28-0.23,0.28h-1.38
	c-0.13,0-0.23-0.13-0.23-0.28v-1.59c0-0.15,0.1-0.271,0.23-0.271h1.38c0.13,0,0.23,0.12,0.23,0.271V2325.121z"/>
<path fill="#333333" d="M11.17,2360.609c-0.27-0.26-0.7-0.26-0.97,0c-0.27,0.271-0.27,0.69,0,0.95l7.82,7.66
	c0.27,0.27,0.7,0.27,0.97,0l7.81-7.66c0.27-0.26,0.27-0.68,0-0.95c-0.26-0.26-0.7-0.26-0.96,0l-7.34,6.891L11.17,2360.609z"/>
<path fill="#333333" d="M96.327,2369.228c0.271,0.26,0.7,0.26,0.971,0c0.27-0.271,0.27-0.69,0-0.95l-7.82-7.66
	c-0.271-0.271-0.7-0.271-0.97,0l-7.81,7.66c-0.27,0.26-0.27,0.68,0,0.95c0.26,0.26,0.7,0.26,0.96,0l7.339-6.891L96.327,2369.228z"/>
<path fill="#999999" d="M157.74,1188.82c0.17-0.18,0.17-0.49,0-0.68c-0.18-0.19-0.46-0.19-0.63,0l-5.11,5.521
	c-0.17,0.189-0.17,0.49,0,0.68l5.11,5.52c0.17,0.19,0.45,0.19,0.63,0c0.17-0.189,0.17-0.5,0-0.68l-4.66-5.18L157.74,1188.82z"/>
<path fill-rule="evenodd" clip-rule="evenodd" fill="#7FA0B0" d="M26.579,819.438c0-3.482-2.889-6.352-6.32-6.352
	c-3.517,0-6.396,2.87-6.396,6.352c0,3.603,2.879,6.563,6.396,6.563C23.69,826,26.579,823.04,26.579,819.438z M24.694,819.438
	c0,2.49-2.044,4.678-4.436,4.678c-2.488,0-4.512-2.188-4.512-4.678c0-2.465,2.024-4.467,4.512-4.467
	C22.65,814.97,24.694,816.972,24.694,819.438z M21.209,816.546c0-0.147-0.105-0.263-0.238-0.263h-0.476
	c-0.135,0-0.237,0.116-0.237,0.263v2.892h-1.857c-0.15,0-0.268,0.103-0.268,0.235v0.476c0,0.134,0.118,0.237,0.268,0.237h2.57
	c0.132,0,0.238-0.103,0.238-0.237V816.546z"/>
<path fill-rule="evenodd" clip-rule="evenodd" fill="#00415F" d="M18.399,1385.162h-1.255v5.228
	c-0.277,0.402-0.539,0.599-0.787,0.599c-0.166,0-0.262-0.111-0.292-0.307c-0.011-0.026-0.011-0.193-0.011-0.483v-5.036h-1.259v5.407
	c0,0.496,0.044,0.806,0.111,1.001c0.125,0.321,0.414,0.48,0.816,0.48c0.454,0,0.923-0.263,1.421-0.806v0.714h1.063L18.399,1385.162z
	 M13.777,1387.352c0-0.734-0.107-1.27-0.329-1.599c-0.292-0.447-0.697-0.668-1.495-0.668c-0.786,0-1.2,0.221-1.495,0.668
	c-0.222,0.329-0.329,0.864-0.329,1.599v2.429c0,0.735,0.107,1.273,0.329,1.609c0.295,0.439,0.709,0.661,1.495,0.661
	c0.798,0,1.204-0.222,1.495-0.661c0.222-0.324,0.329-0.874,0.329-1.609V1387.352z M8.823,1382.808l-0.919,3.572l-0.979-3.572H5.46
	c0.292,0.856,0.594,1.724,0.897,2.565c0.443,1.244,0.72,2.214,0.841,2.894v3.692H8.58v-3.692l1.539-5.459H8.823z M22.445,1400.32
	c0-1.603,0-3.286-0.358-4.833c-0.251-1.093-1.148-1.894-2.211-2.015c-2.54-0.277-5.105-0.277-7.553-0.277
	c-2.587,0-5.054,0-7.579,0.277c-1.078,0.121-1.96,0.922-2.222,2.015c-0.347,1.547-0.358,3.23-0.358,4.833
	c0,1.586,0,3.281,0.358,4.828c0.248,1.092,1.145,1.894,2.208,2.004c2.54,0.288,5.006,0.288,7.593,0.288c2.448,0,5.013,0,7.553-0.288
	c1.063-0.11,1.949-0.912,2.211-2.004C22.43,1403.602,22.445,1401.906,22.445,1400.32z M12.714,1390.017
	c0,0.639-0.229,0.972-0.761,0.972c-0.513,0-0.764-0.333-0.764-0.972v-2.913c0-0.639,0.251-0.956,0.764-0.956
	c0.532,0,0.761,0.317,0.761,0.956V1390.017z M20.913,1402.553c0,0.403,0,0.68-0.03,0.802c-0.026,0.276-0.136,0.524-0.288,0.745
	c-0.332,0.484-0.841,0.73-1.491,0.73c-0.649,0-1.133-0.232-1.492-0.701c-0.262-0.332-0.398-0.871-0.398-1.602v-2.39
	c0-0.729,0.122-1.255,0.384-1.602c0.362-0.468,0.846-0.705,1.48-0.705c0.62,0,1.104,0.237,1.462,0.705
	c0.247,0.347,0.373,0.872,0.373,1.602v1.422h-2.47v1.2c0,0.636,0.207,0.952,0.635,0.952c0.303,0,0.48-0.162,0.55-0.495
	c0.015-0.069,0.03-0.347,0.03-0.842h1.255V1402.553z M16.073,1402.692c0,0.61-0.03,1.045-0.122,1.322
	c-0.148,0.477-0.48,0.728-0.949,0.728c-0.41,0-0.801-0.236-1.182-0.728v0.635H12.67v-9.276h1.151l0.037,3.204
	c0.402-0.495,0.827-0.746,1.285-0.746c0.483,0,0.827,0.263,0.978,0.775c0.1,0.276,0.126,0.731,0.126,1.366v2.72H16.073z
	 M10.451,1404.649v-0.712c-0.483,0.538-0.938,0.805-1.362,0.805c-0.38,0-0.657-0.158-0.764-0.487
	c-0.066-0.199-0.104-0.506-0.104-0.968v-5.345h1.17v4.986c0,0.281,0,0.426,0.011,0.467c0.029,0.184,0.122,0.275,0.284,0.275
	c0.24,0,0.499-0.184,0.764-0.558v-5.171h1.156v6.707H10.451z M6.454,1396.908v7.741h-1.54v-7.741H3.5v-1.535h4.529v1.535H6.454z
	 M19.551,1399.965c0-0.564-0.218-0.852-0.65-0.852c-0.436,0-0.65,0.287-0.65,0.852v0.576h1.3V1399.965z M15.118,1399.951
	c0-0.551-0.152-0.838-0.517-0.838c-0.218,0-0.436,0.084-0.65,0.272v3.994c0.214,0.199,0.432,0.291,0.65,0.291
	c0.365,0,0.517-0.291,0.517-0.886V1399.951z"/>
<path fill-rule="evenodd" clip-rule="evenodd" fill="#999999" d="M77,316.8c0-4.66-3.779-8.44-8.44-8.44
	c-4.66,0-8.44,3.78-8.44,8.44c0,4.661,3.78,8.44,8.44,8.44C73.221,325.24,77,321.461,77,316.8z M72.75,319.28
	c0,0.189-0.08,0.37-0.21,0.51l-0.989,0.99c-0.131,0.13-0.32,0.2-0.511,0.2c-0.18,0-0.36-0.07-0.489-0.2l-1.991-1.99l-1.99,1.99
	c-0.13,0.13-0.31,0.2-0.49,0.2c-0.19,0-0.38-0.07-0.51-0.2l-0.99-0.99c-0.13-0.14-0.21-0.321-0.21-0.51c0-0.19,0.08-0.36,0.21-0.49
	l1.99-1.99l-1.99-1.99c-0.13-0.13-0.21-0.31-0.21-0.5c0-0.18,0.08-0.37,0.21-0.5l0.99-0.99c0.13-0.13,0.32-0.21,0.51-0.21
	c0.18,0,0.36,0.08,0.49,0.21l1.99,1.99l1.991-1.99c0.129-0.13,0.31-0.21,0.489-0.21c0.19,0,0.38,0.08,0.511,0.21l0.989,0.99
	c0.13,0.13,0.21,0.32,0.21,0.5c0,0.19-0.08,0.37-0.21,0.5l-1.989,1.99l1.989,1.99C72.67,318.92,72.75,319.09,72.75,319.28z"/>
<path fill-rule="evenodd" clip-rule="evenodd" fill="#CCCCCC" d="M32.288,1760.013c0-0.859-0.681-1.575-1.506-1.575h-1.995v-1.179
	c0-1.055-0.848-1.903-1.945-1.903H26.11c-1.097,0-1.945,0.849-1.945,1.903v1.179h-5.107v-1.179c0-1.055-0.849-1.903-1.945-1.903
	h-0.728c-1.098,0-1.945,0.849-1.945,1.903v1.179h-1.953c-0.824,0-1.509,0.716-1.509,1.575v16.359c0,0.825,0.685,1.506,1.509,1.506
	h18.296c0.825,0,1.506-0.681,1.506-1.506V1760.013z M27.277,1760.799c0,0.21-0.202,0.393-0.436,0.393H26.11
	c-0.229,0-0.437-0.183-0.437-0.393v-3.54c0-0.21,0.207-0.393,0.437-0.393h0.731c0.234,0,0.436,0.183,0.436,0.393V1760.799z
	 M26.841,1767.031v-3.94h3.94v3.94H26.841z M21.783,1767.031v-3.94h4.327v3.94H21.783z M26.841,1772.089v-4.33h3.94v4.33H26.841z
	 M17.551,1760.799c0,0.21-0.207,0.393-0.439,0.393h-0.728c-0.233,0-0.439-0.183-0.439-0.393v-3.54c0-0.21,0.206-0.393,0.439-0.393
	h0.728c0.233,0,0.439,0.183,0.439,0.393V1760.799z M21.783,1772.089v-4.33h4.327v4.33H21.783z M26.841,1776.372v-3.552h3.94v3.552
	H26.841z M17.112,1767.031v-3.94h3.94v3.94H17.112z M21.783,1776.372v-3.552h4.327v3.552H21.783z M12.485,1767.031v-3.94h3.898v3.94
	H12.485z M17.112,1772.089v-4.33h3.94v4.33H17.112z M12.485,1772.089v-4.33h3.898v4.33H12.485z M17.112,1776.372v-3.552h3.94v3.552
	H17.112z M12.485,1776.372v-3.552h3.898v3.552H12.485z"/>
<path fill-rule="evenodd" clip-rule="evenodd" fill="#999999" d="M164,2359.233c0-0.859-0.68-1.575-1.506-1.575H160.5v-1.179
	c0-1.055-0.85-1.903-1.945-1.903h-0.732c-1.098,0-1.945,0.849-1.945,1.903v1.179h-5.107v-1.179c0-1.055-0.85-1.903-1.945-1.903
	h-0.729c-1.098,0-1.945,0.849-1.945,1.903v1.179h-1.953c-0.824,0-1.509,0.716-1.509,1.575v16.359c0,0.825,0.685,1.506,1.509,1.506
	h18.297c0.826,0,1.506-0.681,1.506-1.506V2359.233z M158.99,2360.02c0,0.21-0.203,0.393-0.436,0.393h-0.732
	c-0.229,0-0.436-0.183-0.436-0.393v-3.54c0-0.21,0.207-0.393,0.436-0.393h0.732c0.232,0,0.436,0.183,0.436,0.393V2360.02z
	 M158.555,2366.252v-3.94h3.939v3.94H158.555z M153.496,2366.252v-3.94h4.326v3.94H153.496z M158.555,2371.31v-4.33h3.939v4.33
	H158.555z M149.264,2360.02c0,0.21-0.207,0.393-0.439,0.393h-0.729c-0.233,0-0.439-0.183-0.439-0.393v-3.54
	c0-0.21,0.206-0.393,0.439-0.393h0.729c0.232,0,0.439,0.183,0.439,0.393V2360.02z M153.496,2371.31v-4.33h4.326v4.33H153.496z
	 M158.555,2375.593v-3.552h3.939v3.552H158.555z M148.824,2366.252v-3.94h3.939v3.94H148.824z M153.496,2375.593v-3.552h4.326v3.552
	H153.496z M144.197,2366.252v-3.94h3.898v3.94H144.197z M148.824,2371.31v-4.33h3.939v4.33H148.824z M144.197,2371.31v-4.33h3.898
	v4.33H144.197z M148.824,2375.593v-3.552h3.939v3.552H148.824z M144.197,2375.593v-3.552h3.898v3.552H144.197z"/>
<polygon fill-rule="evenodd" clip-rule="evenodd" fill="#666666" points="14,2401.076 19,2405.576 19,2396.576 "/>
<polygon fill-rule="evenodd" clip-rule="evenodd" fill="#666666" points="89,2401.076 84,2396.576 84,2405.576 "/>
</svg>
